PathFileType	4	(X/Y/Z)	C:/Users/opensim2020/Desktop/walking_exp_matlab/subject03_walking11_straight_04.trc																																																																																																																																								
DataRate	CameraRate	NumFrames	NumMarkers	Units	OrigDataRate	OrigDataStartFrame	OrigNumFrames																																																																																																																																				
100	100	7	46	mm	100	3748	350																																																																																																																																				
Frame#	Time	LFHD			RFHD			LBHD			RBHD			C7			T10			CLAV			STRN			RBAK			LSHO			LUPA			LELB			LFRM			LWRA			LWRB			LFIN			RSHO			RUPA			RELB			RFRM			RWRA			RWRB			RFIN			LASI			RASI			LPSI			RPSI			LTHI			LKNE			LTIB			LANK			LHEE			LTOE			RTHI			RKNE			RTIB			RANK			RHEE			RTOE			*39			*40			*41			*42			*43			*44			*45		
		X1	Y1	Z1	X2	Y2	Z2	X3	Y3	Z3	X4	Y4	Z4	X5	Y5	Z5	X6	Y6	Z6	X7	Y7	Z7	X8	Y8	Z8	X9	Y9	Z9	X10	Y10	Z10	X11	Y11	Z11	X12	Y12	Z12	X13	Y13	Z13	X14	Y14	Z14	X15	Y15	Z15	X16	Y16	Z16	X17	Y17	Z17	X18	Y18	Z18	X19	Y19	Z19	X20	Y20	Z20	X21	Y21	Z21	X22	Y22	Z22	X23	Y23	Z23	X24	Y24	Z24	X25	Y25	Z25	X26	Y26	Z26	X27	Y27	Z27	X28	Y28	Z28	X29	Y29	Z29	X30	Y30	Z30	X31	Y31	Z31	X32	Y32	Z32	X33	Y33	Z33	X34	Y34	Z34	X35	Y35	Z35	X36	Y36	Z36	X37	Y37	Z37	X38	Y38	Z38	X39	Y39	Z39	X40	Y40	Z40	X41	Y41	Z41	X42	Y42	Z42	X43	Y43	Z43	X44	Y44	Z44	X45	Y45	Z45	X46	Y46	Z46
																																																																																																																																											
1	0	-1122.6897	1592.79041	948.7915	-1126.55566	1602.77344	1081.1615	-1254.46228	1561.32007	950.41284	-1253.29565	1570.26416	1080.8905	-1299.72449	1407.09021	1024.1228	-1351.82007	1094.13293	1027.13843	-1183.14246	1321.7085	1013.83295	-1152.04224	1155.0448	1007.64716	-1353.86548	1235.91296	1130.74451	-1244.3241	1361.04077	861.52606	-1288.49731	1163.51917	802.37732	-1297.98682	1039.72217	795.28589	-1278.15845	911.01074	795.36859	-1255.9856	794.45197	827.05743	-1290.93884	797.70044	783.81799	-1274.49707	715.08234	793.28461	-1208.93445	1349.02527	1175.49622	-1179.5802	1134.13928	1256.97437	-1144.29114	1027.52441	1272.27942	-1098.87756	898.52789	1272.21936	-1055.10046	811.57813	1232.06213	-1077.14075	801.07129	1279.97534	-1039.43091	737.92828	1266.9917	-1191.07166	927.28687	902.2204	-1185.69763	926.21918	1140.17126	-1353.21301	944.6087	953.6911	-1347.24036	958.41095	1103.25012	-1191.71582	625.37744	852.75092	-1127.32898	460.7182	895.14996	-1114.89941	271.70566	888.53198	-1054.46216	67.64835	915.27264	-1080.1073	25.65929	956.04449	-898.80078	62.88501	926.62073	-1277.52197	636.86627	1180.328	-1296.87622	457.34216	1148.14722	-1385.94287	284.73135	1150.52161	-1459.60876	79.11337	1102.18042	-1505.1145	52.15813	1049.74866	-1322.29504	29.93949	1094.91406	-1199.48059	1665.20435	993.55457	NaN	NaN	NaN	NaN	NaN	NaN	NaN	NaN	NaN	NaN	NaN	NaN	NaN	NaN	NaN	NaN	NaN	NaN
2	0.01	-1115.55249	1592.474	947.48163	-1119.53906	1602.43921	1079.8988	-1247.34241	1560.85632	949.06451	-1246.2146	1569.78113	1079.52051	-1292.40747	1406.51111	1022.62714	-1344.21326	1093.57837	1025.98438	-1175.62012	1321.3689	1012.51898	-1144.31006	1154.66528	1006.56378	-1346.38696	1235.43066	1129.36145	-1236.76025	1360.50732	860.12616	-1280.47083	1162.69678	801.46063	-1289.8844	1038.88245	794.81317	-1270.74329	910.00366	795.05426	-1248.46179	793.29645	826.30383	-1284.29297	796.72784	783.62616	-1268.62451	713.98224	793.19342	-1201.62378	1348.71118	1174.11316	-1172.52258	1133.76831	1255.53259	-1137.35474	1027.05811	1270.83154	-1092.07739	898.06891	1270.81738	-1048.32446	811.04144	1230.75208	-1070.46826	800.50458	1278.51672	-1032.85413	737.39606	1265.57849	-1183.05127	926.85736	901.56604	-1178.34058	925.6084	1139.46033	-1345.28198	944.40759	952.56525	-1339.7616	957.86005	1102.15247	-1183.29663	625.12506	853.28345	-1119.91248	460.14917	895.29663	-1107.41895	271.29208	888.14215	-1047.36255	67.00855	914.94696	-1073.73511	25.693	955.02057	-892.01465	62.31116	927.3562	-1271.35791	636.46057	1179.88037	-1291.58826	456.98569	1148.01245	-1382.70239	285.28952	1150.47253	-1458.9187	80.47559	1102.52209	-1504.74207	53.98072	1050.19299	-1322.05579	29.9054	1095.09937	-1192.51843	1664.63428	992.19482	NaN	NaN	NaN	NaN	NaN	NaN	NaN	NaN	NaN	NaN	NaN	NaN	NaN	NaN	NaN	NaN	NaN	NaN
3	0.02	-1108.43384	1592.19727	946.19189	-1112.46997	1602.16272	1078.62756	-1240.07288	1560.42627	947.66309	-1239.1571	1569.43616	1078.17651	-1284.97937	1405.97693	1020.99054	-1336.43848	1093.02759	1024.68311	-1168.01843	1321.00171	1011.18292	-1136.58215	1154.41077	1005.43103	-1338.85962	1234.93604	1127.79907	-1228.95874	1359.9939	858.62146	-1272.25452	1161.9906	800.40442	-1281.58875	1038.06934	794.12323	-1263.02466	909.11798	794.56049	-1242.36987	792.14105	826.4328	-1277.25903	795.87799	783.24097	-1262.43628	712.96472	793.03522	-1194.40515	1348.50488	1172.71509	-1165.55933	1133.47937	1254.01245	-1130.59692	1026.68103	1269.30249	-1085.50427	897.58667	1269.31335	-1041.7345	810.57123	1229.34839	-1064.03491	800.04309	1277.10242	-1026.47095	736.86731	1264.16101	-1174.82239	926.51294	900.93152	-1170.88037	925.06409	1138.74377	-1337.25	944.27332	951.41907	-1332.12061	957.36865	1101.02649	-1174.90723	625.02887	853.74933	-1112.32251	459.63406	895.22369	-1100.75964	270.64236	887.81183	-1042.2229	65.94682	914.99438	-1070.2489	26.22486	953.8219	-887.0802	59.03534	928.6062	-1265.07166	636.03448	1179.47168	-1286.20837	456.63232	1147.66394	-1379.34241	285.81342	1150.22729	-1457.92346	81.76308	1102.8728	-1504.25635	55.90593	1050.5304	-1321.82043	29.90162	1095.28735	-1185.39355	1664.53271	990.8493	NaN	NaN	NaN	NaN	NaN	NaN	NaN	NaN	NaN	NaN	NaN	NaN	NaN	NaN	NaN	NaN	NaN	NaN
4	0.03	-1101.25024	1592.11401	944.83948	-1105.39417	1602.01257	1077.27393	-1232.97351	1560.23962	946.23712	-1232.05835	1569.10889	1076.72314	-1277.58276	1405.54004	1019.26477	-1328.55359	1092.56897	1023.29169	-1160.2489	1320.85718	1009.82886	-1128.5376	1154.23425	1004.32928	-1331.35986	1234.49451	1126.08557	-1220.97449	1359.55286	857.0415	-1263.6925	1161.29797	799.16785	-1272.9115	1037.36255	793.1745	-1255.01965	908.28546	793.88147	-1234.29651	791.29285	825.55762	-1269.91138	795.11041	782.64825	-1255.85156	711.98102	792.80139	-1187.21484	1348.45593	1171.27234	-1158.68982	1133.26501	1252.42554	-1124.0293	1026.36877	1267.76355	-1079.02161	897.18475	1267.85535	-1035.25146	810.16815	1228.01636	-1057.76746	799.59766	1275.58923	-1020.27625	736.28387	1262.69116	-1166.47278	926.27185	900.24316	-1163.28284	924.48413	1137.96179	-1329.09985	944.18683	950.16095	-1324.42371	956.87048	1099.8606	-1166.56042	625.11877	853.98865	-1104.66882	459.30215	894.78345	-1094.97485	269.93011	887.55902	-1039.65588	64.93884	914.97937	-1069.63354	26.52652	954.24231	-884.6969	51.42818	930.48431	-1258.64124	635.60718	1178.98535	-1280.42981	456.25217	1147.47827	-1375.75684	286.466	1150.08447	-1456.86743	83.21062	1103.15393	-1503.71582	58.09939	1050.84021	-1321.5415	29.88015	1095.46277	-1178.2533	1663.97583	989.19952	NaN	NaN	NaN	NaN	NaN	NaN	NaN	NaN	NaN	NaN	NaN	NaN	NaN	NaN	NaN	NaN	NaN	NaN
5	0.04	-1093.9751	1592.15491	943.52399	-1098.33154	1602.05176	1075.97217	-1225.60291	1560.06128	944.71454	-1224.91492	1568.92102	1075.2439	-1270.15137	1405.23523	1017.37976	-1320.52075	1092.19519	1021.76904	-1152.5343	1320.78735	1008.39178	-1120.60364	1154.18018	1003.17444	-1323.87988	1234.20056	1124.10046	-1212.79187	1359.17554	855.37079	-1254.98633	1160.66016	797.74518	-1264.12036	1036.68262	792.08319	-1246.76343	907.54816	793.09479	-1226.80835	790.40881	825.08954	-1262.16772	794.41956	781.92102	-1249.00415	711.11523	792.43884	-1180.08362	1348.39478	1169.73694	-1151.9043	1133.11743	1250.79285	-1117.55896	1026.10632	1266.17932	-1072.87659	896.89557	1266.40332	-1029.00049	809.75543	1226.5592	-1051.70996	799.19305	1274.07141	-1014.38324	735.85492	1261.22705	-1158.01404	926.12439	899.61993	-1155.5448	923.93018	1137.19775	-1320.82617	944.20044	948.75122	-1316.61023	956.45068	1098.64929	-1158.22485	625.6803	853.92615	-1097.34119	459.34351	894.1192	-1090.02576	269.41055	887.44421	-1038.55347	63.9209	914.96234	-1069.87805	26.39553	954.71973	-884.31116	42.941	933.57886	-1251.96118	635.14386	1178.44946	-1274.32031	455.83725	1147.10425	-1371.79675	287.0574	1149.8291	-1455.73889	84.97239	1103.41016	-1503.06152	60.52614	1051.09741	-1321.28552	29.88022	1095.59692	-1171.21228	1663.9187	987.84412	NaN	NaN	NaN	NaN	NaN	NaN	NaN	NaN	NaN	NaN	NaN	NaN	NaN	NaN	NaN	NaN	NaN	NaN
6	0.05	-1086.60571	1592.48059	942.11719	-1091.1781	1602.35535	1074.58936	-1218.26892	1560.17761	943.1106	-1217.6582	1568.95496	1073.60034	-1262.64417	1405.1842	1015.36096	-1312.4718	1092.08618	1020.27802	-1144.75757	1320.91589	1006.97791	-1112.46851	1154.16504	1002.13794	-1316.47595	1234.10205	1121.95557	-1204.38367	1358.89343	853.5838	-1245.99829	1160.17163	796.16919	-1255.0033	1036.12976	790.70575	-1238.13342	906.83197	792.12805	-1219.20435	789.6413	824.51495	-1254.09949	793.79291	780.97961	-1241.6731	710.3576	792.00659	-1172.93896	1348.61438	1168.29309	-1145.24841	1133.09094	1249.15845	-1111.18591	1025.93591	1264.56152	-1066.88513	896.55841	1264.82214	-1022.88489	809.43439	1225.15112	-1045.89258	798.91266	1272.5426	-1008.63055	735.44684	1259.76538	-1149.46436	926.27478	898.90338	-1147.79724	923.47992	1136.44202	-1312.55225	944.5072	947.39032	-1308.80017	956.07587	1097.4646	-1149.96289	626.73059	853.37823	-1090.61621	459.58566	893.39978	-1085.7749	269.16089	887.19537	-1036.43921	63.28204	914.70532	-1069.3457	26.9491	953.61249	-882.67047	38.35119	937.52606	-1244.96301	634.68799	1177.73132	-1267.79077	455.42535	1146.47583	-1367.49377	287.84412	1149.53369	-1454.45605	87.07994	1103.62317	-1502.23096	63.33648	1051.2533	-1320.97351	29.88969	1095.74194	-1164.00928	1664.04114	986.21942	NaN	NaN	NaN	NaN	NaN	NaN	NaN	NaN	NaN	NaN	NaN	NaN	NaN	NaN	NaN	NaN	NaN	NaN
7	0.06	-1079.20056	1593.16077	940.72571	-1083.9856	1602.95032	1073.20593	-1210.79993	1560.58899	941.52557	-1210.46143	1569.36646	1072.07214	-1255.052	1405.48853	1013.30554	-1304.48145	1092.28918	1018.8208	-1136.94995	1321.38806	1005.5285	-1104.48706	1154.79871	1001.04492	-1309.11218	1234.25769	1119.71191	-1195.83398	1358.82092	851.82043	-1236.68335	1159.84766	794.47296	-1245.58203	1035.60742	789.22418	-1229.28381	906.38074	791.04614	-1211.14099	789.18555	823.86212	-1245.63953	793.37982	779.86401	-1234.14966	709.7962	791.40759	-1165.76672	1348.89087	1166.79858	-1138.70752	1133.26074	1247.43005	-1104.95325	1025.96667	1262.91272	-1061.00269	896.48285	1263.21436	-1016.95569	809.25848	1223.67798	-1040.29468	798.66504	1270.92017	-1003.14813	735.16632	1258.27991	-1140.9425	926.8103	898.2088	-1140.03516	923.20728	1135.67175	-1304.24951	945.09967	945.9776	-1300.98987	955.88226	1096.33191	-1141.8512	628.22766	852.60089	-1084.68445	460.20953	892.62213	-1081.68713	269.23569	886.59009	-1033.50879	63.56865	914.93451	-1067.79419	28.17238	953.10345	-879.91388	37.05568	937.76746	-1237.69116	634.42834	1176.99609	-1260.57483	455.16351	1146.00586	-1362.8457	288.85229	1149.12732	-1452.91809	89.48712	1103.77905	-1501.20142	66.61362	1051.35437	-1320.79956	29.77223	1095.57434	-1156.73413	1664.88647	984.82233	NaN	NaN	NaN	NaN	NaN	NaN	NaN	NaN	NaN	NaN	NaN	NaN	NaN	NaN	NaN	NaN	NaN	NaN
